# xmcd
#
# Track frame offsets:
#	183
#	12290
#	22050
#	31450
#	42343
#	54010
#	64860
#	77490
#	87590
#	96715
#	105595
#	114445
#	123513
#	134650
#	143928
#	157585
#
# Disc length: 2268 seconds
#
# Revision: 4
# Processed by: cddbd v1.5.2PL0 Copyright (c) Steve Scherf et al.
# Submitted via: audiograbber 1.83.01
#
DISCID=d508da10
DTITLE=Brenda Lee - Brenda's Best
DYEAR=1988
DGENRE=Oldies
TTITLE0=I'm Sorry
TTITLE1=Jambalaya
TTITLE2=Dynamite
TTITLE3=Sweet Nothin's
TTITLE4=Let's Jump the Broomstick
TTITLE5=Bill Bailey, Won't You Please Come Home
TTITLE6=Emotions
TTITLE7=Baby Face
TTITLE8=Ring-A-My-Phone
TTITLE9=Love You 'Till I Die
TTITLE10=Just Because
TTITLE11=Hummin' the Blues Over You
TTITLE12=That's All You Gotta Do
TTITLE13=Wee Wee Willies
TTITLE14=Weep No More My Baby
TTITLE15=(If I'm Dreaming) Just Let Me Dream
EXTD=
EXTT0=
EXTT1=
EXTT2=
EXTT3=
EXTT4=
EXTT5=
EXTT6=
EXTT7=
EXTT8=
EXTT9=
EXTT10=
EXTT11=
EXTT12=
EXTT13=
EXTT14=
EXTT15=
PLAYORDER=
